<svg xmlns="http://www.w3.org/2000/svg" version="1.1" xmlns:xlink="http://www.w3.org/1999/xlink" xmlns:svgjs="http://svgjs.com/svgjs" width="700" height="700"><svg version="1.1" xmlns="http://www.w3.org/2000/svg" xmlns:xlink="http://www.w3.org/1999/xlink" x="0px" y="0px" viewBox="0 0 700 700" style="enable-background:new 0 0 700 700;" xml:space="preserve">
<style type="text/css">
	.st0{display:none;}
	.st1{display:inline;}
	.st2{display:inline;fill:#FFFFFF;}
	.st3{display:inline;fill:#FFCACA;}
	.st4{display:inline;opacity:0.1;}
	.st5{font-family:'CoolveticaCrammedRg-Regular';}
	.st6{font-size:1033.5225px;}
	.st7{letter-spacing:25.37;}
	.st8{display:inline;opacity:0.5;fill:#D9FFCC;}
	.st9{display:inline;fill:#D9FFCC;}
	.st10{display:inline;opacity:0.4;fill:#00FF00;}
	.st11{display:inline;opacity:0.3;fill:#FF0000;}
	.st12{display:inline;opacity:0.3;fill:#FF00FF;}
</style>
<g id="SvgjsG1013" class="st0">
	<g class="st1">
		<rect x="-75" y="-75" width="850" height="850"></rect>
	</g>
</g>
<g id="SvgjsG1012" class="st0">
</g>
<g id="SvgjsG1011" class="st0">
	<path class="st2" d="M-50-50v800h800V-50H-50z M200,700h-60l-40-280L60,700H0l50-350L0,0h60l40,280L140,0h60l-50,350L200,700z
		 M390,700H285h-5h-55V0h60v640h105V700z M475,700h-60V0h60V700z M650,700h-40h-20h-40L500,0h60l40,560L640,0h60L650,700z"></path>
</g>
<g id="SvgjsG1010" class="st0">
	<path class="st2" d="M700,750H0c-27.61,0-50-22.39-50-50V0c0-27.61,22.39-50,50-50h700c27.61,0,50,22.39,50,50v700
		C750,727.61,727.61,750,700,750z"></path>
</g>
<g id="SvgjsG1009" class="st0">
	<rect y="0" class="st3" width="700" height="700"></rect>
</g>
<g id="SvgjsG1008" class="st0">
	<text transform="matrix(1.0249 0 0 1 4.2866 698.4727)" class="st4 st5 st6 st7" svgjs:data="{&quot;leading&quot;:&quot;1.3&quot;}">XLIV</text>
</g>
<g id="SvgjsG1007" class="st0">
	<rect y="0" class="st8" width="200" height="700"></rect>
	<rect x="500" y="0" class="st8" width="200" height="700"></rect>
	<rect x="225" y="0" class="st8" width="250" height="700"></rect>
</g>
<g id="SvgjsG1006" class="st0">
	<rect x="412" y="0" class="st1" width="60" height="700"></rect>
	<polygon class="st1" points="612,700 552,700 502,0 562,0 	"></polygon>
	<polygon class="st1" points="592,700 652,700 702,0 642,0 	"></polygon>
	<rect x="302" y="620" transform="matrix(4.486817e-11 -1 1 4.486817e-11 -338 1002)" class="st1" width="60" height="100"></rect>
	<rect x="242" y="0" class="st1" width="60" height="700"></rect>
	<polygon class="st1" points="62,700 2,700 152,0 212,0 	"></polygon>
	<polygon class="st1" points="152,700 212,700 62,0 2,0 	"></polygon>
</g>
<g id="SvgjsG1005" class="st0">
	<rect x="415" y="0" class="st1" width="60" height="700"></rect>
	<polygon class="st1" points="610,700 550,700 500,0 560,0 	"></polygon>
	<polygon class="st1" points="590,700 650,700 700,0 640,0 	"></polygon>
	<rect x="305" y="615" transform="matrix(4.935525e-11 -1 1 4.935525e-11 -335 1005)" class="st1" width="60" height="110"></rect>
	<rect x="225" y="0" class="st1" width="60" height="700"></rect>
	<polygon class="st1" points="120,350 60,350 0,0 60,0 	"></polygon>
	<polygon class="st1" points="80,350 140,350 200,0 140,0 	"></polygon>
	<polygon class="st1" points="120,350 60,350 0,700 60,700 	"></polygon>
	<polygon class="st1" points="80,350 140,350 200,700 140,700 	"></polygon>
</g>
<g id="SvgjsG1004" class="st0">
	<path class="st1" d="M455,700h-40V20c0-11.05,8.95-20,20-20h40v680C475,691.05,466.05,700,455,700z"></path>
	<path class="st1" d="M610,700h-41.38c-10.49,0-19.2-8.11-19.95-18.58L500,0h41.38c10.49,0,19.2,8.11,19.95,18.58L610,700z"></path>
	<path class="st1" d="M590,700h60L700,0l-41.38,0c-10.49,0-19.2,8.11-19.95,18.58L590,700z"></path>
	<path class="st1" d="M390,660v40H280v-60h90C381.05,640,390,648.95,390,660z"></path>
	<path class="st1" d="M285,700h-60V0h40c11.05,0,20,8.95,20,20V700z"></path>
	<path class="st1" d="M110,350H50L0,0h42.65c9.95,0,18.39,7.32,19.8,17.17L110,350z"></path>
	<path class="st1" d="M90,350h60L200,0l-42.65,0c-9.95,0-18.39,7.32-19.8,17.17L90,350z"></path>
	<path class="st1" d="M110,350H50L0,700h42.65c9.95,0,18.39-7.32,19.8-17.17L110,350z"></path>
	<path class="st1" d="M90,350h60l50,350h-42.65c-9.95,0-18.39-7.32-19.8-17.17L90,350z"></path>
</g>
<g id="SvgjsG1003">
	<rect x="415" y="0" width="60" height="700"></rect>
	<polygon points="610,700 550,700 500,0 560,0 	"></polygon>
	<polygon points="590,700 650,700 700,0 640,0 	"></polygon>
	<rect x="305" y="615" transform="matrix(4.935525e-11 -1 1 4.935525e-11 -335 1005)" width="60" height="110"></rect>
	<rect x="225" y="0" width="60" height="700"></rect>
	<polygon points="110,350 50,350 0,0 60,0 	"></polygon>
	<polygon points="90,350 150,350 200,0 140,0 	"></polygon>
	<polygon points="110,350 50,350 0,700 60,700 	"></polygon>
	<polygon points="90,350 150,350 200,700 140,700 	"></polygon>
</g>
<g id="SvgjsG1002" class="st0">
	<rect x="390" y="692" class="st9" width="25" height="6"></rect>
	<rect y="0" class="st10" width="200" height="350"></rect>
	<rect y="340" class="st11" width="70" height="10"></rect>
	<rect x="130" y="340" class="st11" width="70" height="10"></rect>
	<rect x="70" y="340" class="st12" width="60" height="10"></rect>
</g>
<g id="SvgjsG1001" class="st0">
	<rect x="410" y="60" class="st2" width="70" height="60"></rect>
	<rect x="495" y="-1" class="st2" width="70" height="60"></rect>
	<rect x="131" y="641" class="st2" width="70" height="60"></rect>
	<rect x="219" y="580" class="st2" width="70" height="60"></rect>
</g>
<g id="SvgjsG1000" class="st0">
	<rect x="-50" y="349.5" class="st2" width="100" height="1"></rect>
</g>
</svg><style>@media (prefers-color-scheme: light) { :root { filter: contrast(1) brightness(1); } }
@media (prefers-color-scheme: dark) { :root { filter: contrast(0.3846153846153846) brightness(4.5); } }
</style></svg>