<?xml version="1.0" encoding="utf-8"?>
<!-- Generator: Adobe Illustrator 23.0.1, SVG Export Plug-In . SVG Version: 6.00 Build 0)  -->
<svg version="1.1" id="Layer_1" xmlns="http://www.w3.org/2000/svg" xmlns:xlink="http://www.w3.org/1999/xlink" x="0px" y="0px"
	 viewBox="0 0 700 700" style="enable-background:new 0 0 700 700;" xml:space="preserve">
<style type="text/css">
	.st0{display:none;}
	.st1{display:inline;}
	.st2{display:inline;fill:#FFFFFF;}
	.st3{display:inline;fill:#FFCACA;}
	.st4{display:inline;opacity:0.1;enable-background:new    ;}
	.st5{font-family:'CoolveticaCrammedRg-Regular';}
	.st6{font-size:1033.5225px;}
	.st7{letter-spacing:24.4;}
	.st8{display:inline;opacity:0.5;fill:#D9FFCC;enable-background:new    ;}
	.st9{display:inline;fill:#D9FFCC;}
	.st10{display:inline;opacity:0.4;fill:#00FF00;enable-background:new    ;}
	.st11{display:inline;opacity:0.3;fill:#FF0000;enable-background:new    ;}
	.st12{display:inline;opacity:0.3;fill:#FF00FF;enable-background:new    ;}
</style>
<g class="st0">
	<g class="st1">
		<rect x="-75" y="-75" width="850" height="850"/>
	</g>
</g>
<g id="Layer_5_copy_2" class="st0">
	<path class="st2" d="M-50-50v800h800V-50H-50z M200,700h-60l-40-280L60,700H0l50-350L0,0h60l40,280L140,0h60l-50,350L200,700z
		 M390,700H285h-5h-55V0h60v640h105V700z M475,700h-60V0h60V700z M650,700h-40h-20h-40L500,0h60l40,560L640,0h60L650,700z"/>
</g>
<g id="Layer_14" class="st0">
	<path class="st2" d="M700,750H0c-27.6,0-50-22.4-50-50V0c0-27.6,22.4-50,50-50h700c27.6,0,50,22.4,50,50v700
		C750,727.6,727.6,750,700,750z"/>
</g>
<g id="Layer_4" class="st0">
	<rect class="st3" width="700" height="700"/>
</g>
<g id="Layer_3" class="st0">
	<text transform="matrix(1.0249 0 0 1 4.2861 698.4727)" class="st4 st5 st6 st7">XLIV</text>
</g>
<g id="Layer_6" class="st0">
	<rect class="st8" width="200" height="700"/>
	<rect x="500" class="st8" width="200" height="700"/>
	<rect x="225" class="st8" width="250" height="700"/>
</g>
<g id="Layer_5" class="st0">
	<rect x="412" class="st1" width="60" height="700"/>
	<polygon class="st1" points="612,700 552,700 502,0 562,0 	"/>
	<polygon class="st1" points="592,700 652,700 702,0 642,0 	"/>
	<rect x="282" y="640" class="st1" width="100" height="60"/>
	<rect x="242" class="st1" width="60" height="700"/>
	<polygon class="st1" points="62,700 2,700 152,0 212,0 	"/>
	<polygon class="st1" points="152,700 212,700 62,0 2,0 	"/>
</g>
<g id="Layer_5_copy" class="st0">
	<rect x="415" class="st1" width="60" height="700"/>
	<polygon class="st1" points="610,700 550,700 500,0 560,0 	"/>
	<polygon class="st1" points="590,700 650,700 700,0 640,0 	"/>
	<rect x="280" y="640" class="st1" width="110" height="60"/>
	<rect x="225" class="st1" width="60" height="700"/>
	<polygon class="st1" points="120,350 60,350 0,0 60,0 	"/>
	<polygon class="st1" points="80,350 140,350 200,0 140,0 	"/>
	<polygon class="st1" points="120,350 60,350 0,700 60,700 	"/>
	<polygon class="st1" points="80,350 140,350 200,700 140,700 	"/>
</g>
<g id="Layer_5_copy_3" class="st0">
	<path class="st1" d="M455,700h-40V20c0-11,9-20,20-20h40v680C475,691,466,700,455,700z"/>
	<path class="st1" d="M610,700h-41.4c-10.5,0-19.2-8.1-20-18.6L500,0h41.4c10.5,0,19.2,8.1,20,18.6L610,700z"/>
	<path class="st1" d="M590,700h60L700,0h-41.4c-10.5,0-19.2,8.1-20,18.6L590,700z"/>
	<path class="st1" d="M390,660v40H280v-60h90C381,640,390,649,390,660z"/>
	<path class="st1" d="M285,700h-60V0h40c11,0,20,9,20,20V700z"/>
	<path class="st1" d="M110,350H50L0,0h42.7C52.6,0,61,7.3,62.4,17.2L110,350z"/>
	<path class="st1" d="M90,350h60L200,0h-42.6c-9.9,0-18.4,7.3-19.8,17.2L90,350z"/>
	<path class="st1" d="M110,350H50L0,700h42.7c9.9,0,18.4-7.3,19.8-17.2L110,350z"/>
	<path class="st1" d="M90,350h60l50,350h-42.6c-9.9,0-18.4-7.3-19.8-17.2L90,350z"/>
</g>
<g id="Layer_5_copy_4">
	<rect x="415" width="60" height="700"/>
	<polygon points="610,700 550,700 500,0 560,0 	"/>
	<polygon points="590,700 650,700 700,0 640,0 	"/>
	<rect x="280" y="640" width="110" height="60"/>
	<rect x="225" width="60" height="700"/>
	<polygon points="110,350 50,350 0,0 60,0 	"/>
	<polygon points="90,350 150,350 200,0 140,0 	"/>
	<polygon points="110,350 50,350 0,700 60,700 	"/>
	<polygon points="90,350 150,350 200,700 140,700 	"/>
</g>
<g id="Layer_7" class="st0">
	<rect x="390" y="692" class="st9" width="25" height="6"/>
	<rect class="st10" width="200" height="350"/>
	<rect y="340" class="st11" width="70" height="10"/>
	<rect x="130" y="340" class="st11" width="70" height="10"/>
	<rect x="70" y="340" class="st12" width="60" height="10"/>
</g>
<g id="Layer_10" class="st0">
	<rect x="410" y="60" class="st2" width="70" height="60"/>
	<rect x="495" y="-1" class="st2" width="70" height="60"/>
	<rect x="131" y="641" class="st2" width="70" height="60"/>
	<rect x="219" y="580" class="st2" width="70" height="60"/>
</g>
<g id="Layer_11" class="st0">
	<rect x="-50" y="349.5" class="st2" width="100" height="1"/>
</g>
</svg>
