<?xml version="1.0" encoding="utf-8"?>
<!-- Generator: Adobe Illustrator 23.0.1, SVG Export Plug-In . SVG Version: 6.00 Build 0)  -->
<svg version="1.1" id="Layer_1" xmlns="http://www.w3.org/2000/svg" xmlns:xlink="http://www.w3.org/1999/xlink" x="0px" y="0px"
	 viewBox="0 0 800 800" style="enable-background:new 0 0 800 800;" xml:space="preserve">
<style type="text/css">
	.st0{display:none;}
	.st1{display:inline;}
	.st2{display:inline;fill:#FFFFFF;}
	.st3{fill:#FFFFFF;}
	.st4{display:inline;fill:#FFCACA;}
	.st5{display:inline;opacity:0.1;enable-background:new    ;}
	.st6{font-family:'CoolveticaCrammedRg-Regular';}
	.st7{font-size:1033.5225px;}
	.st8{letter-spacing:24.4;}
	.st9{display:inline;opacity:0.5;fill:#D9FFCC;enable-background:new    ;}
	.st10{display:inline;fill:#D9FFCC;}
	.st11{display:inline;opacity:0.4;fill:#00FF00;enable-background:new    ;}
	.st12{display:inline;opacity:0.3;fill:#FF0000;enable-background:new    ;}
	.st13{display:inline;opacity:0.3;fill:#FF00FF;enable-background:new    ;}
</style>
<g class="st0">
	<g class="st1">
		<rect x="-25" y="-25" width="850" height="850"/>
	</g>
</g>
<g id="Layer_5_copy_2" class="st0">
	<path class="st2" d="M0,0v800h800V0H0z M250,750h-60l-40-280l-40,280H50l50-350L50,50h60l40,280l40-280h60l-50,350L250,750z
		 M440,750H335h-5h-55V50h60v640h105V750z M525,750h-60V50h60V750z M700,750h-40h-20h-40L550,50h60l40,560l40-560h60L700,750z"/>
</g>
<g id="Layer_14">
	<path class="st3" d="M800,800H0V0h800V800z"/>
</g>
<g id="Layer_4" class="st0">
	<rect x="50" y="50" class="st4" width="700" height="700"/>
</g>
<g id="Layer_3" class="st0">
	<text transform="matrix(1.0249 0 0 1 54.2861 748.4727)" class="st5 st6 st7 st8">XLIV</text>
</g>
<g id="Layer_6" class="st0">
	<rect x="50" y="50" class="st9" width="200" height="700"/>
	<rect x="550" y="50" class="st9" width="200" height="700"/>
	<rect x="275" y="50" class="st9" width="250" height="700"/>
</g>
<g id="Layer_5" class="st0">
	<rect x="462" y="50" class="st1" width="60" height="700"/>
	<polygon class="st1" points="662,750 602,750 552,50 612,50 	"/>
	<polygon class="st1" points="642,750 702,750 752,50 692,50 	"/>
	<rect x="332" y="690" class="st1" width="100" height="60"/>
	<rect x="292" y="50" class="st1" width="60" height="700"/>
	<polygon class="st1" points="112,750 52,750 202,50 262,50 	"/>
	<polygon class="st1" points="202,750 262,750 112,50 52,50 	"/>
</g>
<g id="Layer_5_copy" class="st0">
	<rect x="465" y="50" class="st1" width="60" height="700"/>
	<polygon class="st1" points="660,750 600,750 550,50 610,50 	"/>
	<polygon class="st1" points="640,750 700,750 750,50 690,50 	"/>
	<rect x="330" y="690" class="st1" width="110" height="60"/>
	<rect x="275" y="50" class="st1" width="60" height="700"/>
	<polygon class="st1" points="170,400 110,400 50,50 110,50 	"/>
	<polygon class="st1" points="130,400 190,400 250,50 190,50 	"/>
	<polygon class="st1" points="170,400 110,400 50,750 110,750 	"/>
	<polygon class="st1" points="130,400 190,400 250,750 190,750 	"/>
</g>
<g id="Layer_5_copy_3" class="st0">
	<path class="st1" d="M505,750h-40V70c0-11,9-20,20-20h40v680C525,741,516,750,505,750z"/>
	<path class="st1" d="M660,750h-41.4c-10.5,0-19.2-8.1-20-18.6L550,50h41.4c10.5,0,19.2,8.1,20,18.6L660,750z"/>
	<path class="st1" d="M640,750h60l50-700h-41.4c-10.5,0-19.2,8.1-20,18.6L640,750z"/>
	<path class="st1" d="M440,710v40H330v-60h90C431,690,440,699,440,710z"/>
	<path class="st1" d="M335,750h-60V50h40c11,0,20,9,20,20V750z"/>
	<path class="st1" d="M160,400h-60L50,50h42.7c9.9,0,18.4,7.3,19.8,17.2L160,400z"/>
	<path class="st1" d="M140,400h60l50-350h-42.6c-9.9,0-18.4,7.3-19.8,17.2L140,400z"/>
	<path class="st1" d="M160,400h-60L50,750h42.7c9.9,0,18.4-7.3,19.8-17.2L160,400z"/>
	<path class="st1" d="M140,400h60l50,350h-42.6c-9.9,0-18.4-7.3-19.8-17.2L140,400z"/>
</g>
<g id="Layer_5_copy_4">
	<rect x="465" y="50" width="60" height="700"/>
	<polygon points="660,750 600,750 550,50 610,50 	"/>
	<polygon points="640,750 700,750 750,50 690,50 	"/>
	<rect x="330" y="690" width="110" height="60"/>
	<rect x="275" y="50" width="60" height="700"/>
	<polygon points="160,400 100,400 50,50 110,50 	"/>
	<polygon points="140,400 200,400 250,50 190,50 	"/>
	<polygon points="160,400 100,400 50,750 110,750 	"/>
	<polygon points="140,400 200,400 250,750 190,750 	"/>
</g>
<g id="Layer_7" class="st0">
	<rect x="440" y="742" class="st10" width="25" height="6"/>
	<rect x="50" y="50" class="st11" width="200" height="350"/>
	<rect x="50" y="390" class="st12" width="70" height="10"/>
	<rect x="180" y="390" class="st12" width="70" height="10"/>
	<rect x="120" y="390" class="st13" width="60" height="10"/>
</g>
<g id="Layer_10" class="st0">
	<rect x="460" y="110" class="st2" width="70" height="60"/>
	<rect x="545" y="49" class="st2" width="70" height="60"/>
	<rect x="181" y="691" class="st2" width="70" height="60"/>
	<rect x="269" y="630" class="st2" width="70" height="60"/>
</g>
<g id="Layer_11" class="st0">
	<rect y="399.5" class="st2" width="100" height="1"/>
</g>
</svg>
